<svg width="50" height="50" viewBox="0 0 50 50" fill="none" xmlns="http://www.w3.org/2000/svg">
<path fill-rule="evenodd" clip-rule="evenodd" d="M9.30097 32.2176C11.2545 30.2641 13.904 29.1667 16.6667 29.1667H33.3333C36.096 29.1667 38.7455 30.2641 40.699 32.2176C42.6525 34.1711 43.75 36.8207 43.75 39.5833V43.75C43.75 44.9006 42.8173 45.8333 41.6667 45.8333C40.5161 45.8333 39.5833 44.9006 39.5833 43.75V39.5833C39.5833 37.9257 38.9249 36.336 37.7527 35.1639C36.5806 33.9918 34.9909 33.3333 33.3333 33.3333H16.6667C15.0091 33.3333 13.4194 33.9918 12.2472 35.1639C11.0751 36.336 10.4167 37.9257 10.4167 39.5833V43.75C10.4167 44.9006 9.48393 45.8333 8.33333 45.8333C7.18274 45.8333 6.25 44.9006 6.25 43.75V39.5833C6.25 36.8207 7.34747 34.1711 9.30097 32.2176Z" fill="#484C52"/>
<path fill-rule="evenodd" clip-rule="evenodd" d="M24.9999 8.33334C21.5481 8.33334 18.7499 11.1316 18.7499 14.5833C18.7499 18.0351 21.5481 20.8333 24.9999 20.8333C28.4517 20.8333 31.2499 18.0351 31.2499 14.5833C31.2499 11.1316 28.4517 8.33334 24.9999 8.33334ZM14.5833 14.5833C14.5833 8.83037 19.247 4.16667 24.9999 4.16667C30.7529 4.16667 35.4166 8.83037 35.4166 14.5833C35.4166 20.3363 30.7529 25 24.9999 25C19.247 25 14.5833 20.3363 14.5833 14.5833Z" fill="#484C52"/>
</svg>
